#!OML:ASF I:\Actors\actors\Patient Classification 2\Patient 1\Session 1\actor1.ASF
:FULLY-SPECIFIED
:DEGREES
580
root -0.483028 18.8338 5.02266 26.5839 6.59016 -1.76438
lowerback 28.368 0.936214 0.592734
upperback 3.28153 1.3726 -0.154057
thorax -12.0395 0.593656 -1.03644
lowerneck -9.93974 4.95785 2.1351
upperneck 7.28981 6.98203 -6.56553
head 4.11263 3.15804 -1.89397
rclavicle 6.53505e-015 4.02539e-015
rhumerus 3.03625 27.8174 -69.9118
rradius 45.4881
rwrist 9.41405
rhand -24.472 -34.4655
rfingers 7.12502
rthumb 2.02151 -64.4356
lclavicle 6.53505e-015 4.02539e-015
lhumerus 11.3663 -25.6315 76.116
lradius 43.0897
lwrist -13.8551
lhand -21.2631 -43.1535
lfingers 7.12502
lthumb 5.1203 -13.2354
rfemur -26.8492 -2.58136 15.9899
rtibia 8.76369
rfoot -20.2234 -17.8434
rtoes -2.48952
lfemur -42.5144 -3.02296 -9.89238
ltibia 29.4564
lfoot -14.5263 7.36141
ltoes -55.8959
581
root -0.483022 18.8331 5.02123 26.5453 6.63808 -1.7756
lowerback 28.4154 0.972268 0.568791
upperback 3.2774 1.41067 -0.162293
thorax -12.0686 0.611458 -1.04738
lowerneck -9.73869 5.23135 2.22959
upperneck 6.87869 7.3432 -6.8606
head 3.98552 3.33754 -1.98187
rclavicle 1.80397e-014 -7.0817e-015
rhumerus 2.90511 27.7128 -69.8953
rradius 45.5334
rwrist 9.48085
rhand -24.4205 -34.5225
rfingers 7.12502
rthumb 2.07129 -64.4922
lclavicle 1.80397e-014 -7.0817e-015
lhumerus 11.4216 -25.6928 76.1543
lradius 43.0582
lwrist -13.9215
lhand -21.2494 -43.2205
lfingers 7.12502
lthumb 5.1335 -13.3027
rfemur -26.8049 -2.60105 16.0196
rtibia 8.7711
rfoot -20.2515 -17.8633
rtoes -2.63606
lfemur -42.4857 -3.04048 -9.87427
ltibia 29.4619
lfoot -14.5159 7.32102
ltoes -55.9838
582
root -0.482599 18.8321 5.01899 26.5122 6.69028 -1.79781
lowerback 28.5049 1.00375 0.614225
upperback 3.25846 1.46016 -0.200352
thorax -12.134 0.629589 -1.13803
lowerneck -9.54447 5.46968 2.37453
upperneck 6.41057 7.64954 -7.19633
head 3.84489 3.49178 -2.09502
rclavicle -2.96438e-014 -9.98893e-015
rhumerus 2.6969 27.5945 -69.9124
rradius 45.6113
rwrist 9.4808
rhand -24.4492 -34.4999
rfingers 7.12502
rthumb 2.04357 -64.4699
lclavicle -2.96438e-014 -9.98893e-015
lhumerus 11.4772 -25.8569 76.1338
lradius 43.0651
lwrist -13.9068
lhand -21.294 -43.3048
lfingers 7.12502
lthumb 5.09048 -13.3859
rfemur -26.7607 -2.62159 16.0585
rtibia 8.75693
rfoot -20.2569 -17.8833
rtoes -2.75928
lfemur -42.4681 -3.06039 -9.84215
ltibia 29.4646
lfoot -14.5456 7.30088
ltoes -55.9612
583
root -0.481621 18.8312 5.01628 26.5151 6.7425 -1.79688
lowerback 28.5794 1.00609 0.670976
upperback 3.22791 1.47218 -0.266279
thorax -12.2048 0.629224 -1.25299
lowerneck -9.24721 5.71833 2.50287
upperneck 5.79144 7.9598 -7.51573
head 3.64229 3.65583 -2.20555
rclavicle -1.58034e-014 2.8302e-014
rhumerus 2.55456 27.5435 -69.9647
rradius 45.599
rwrist 9.46463
rhand -24.4948 -34.4343
rfingers 7.12502
rthumb 1.99952 -64.4046
lclavicle -1.58034e-014 2.8302e-014
lhumerus 11.531 -25.9805 76.0697
lradius 43.0692
lwrist -13.8571
lhand -21.3457 -43.3542
lfingers 7.12502
lthumb 5.04052 -13.4341
rfemur -26.7472 -2.66063 16.0669
rtibia 8.71818
rfoot -20.2382 -17.9013
rtoes -2.83092
lfemur -42.4943 -3.12528 -9.81645
ltibia 29.4676
lfoot -14.5558 7.34667
ltoes -55.9769
584
root -0.481635 18.8304 5.01457 26.5175 6.81023 -1.80925
lowerback 28.548 1.02044 0.611637
upperback 3.25359 1.47306 -0.261057
thorax -12.1602 0.633464 -1.21189
lowerneck -8.98905 6.03412 2.71593
upperneck 4.97167 8.333 -7.69397
head 3.75595 3.87803 -2.53737
rclavicle -1.12562e-014 9.0447e-015
rhumerus 2.58673 27.6104 -69.8711
rradius 45.5424
rwrist 9.36903
rhand -24.5104 -34.3704
rfingers 7.12502
rthumb 1.98444 -64.3409
lclavicle -1.12562e-014 9.0447e-015
lhumerus 11.6401 -25.9449 76.0458
lradius 43.0735
lwrist -13.8536
lhand -21.3456 -43.2874
lfingers 7.12502
lthumb 5.04068 -13.3673
rfemur -26.7272 -2.70398 16.1013
rtibia 8.67642
rfoot -20.2366 -17.9049
rtoes -2.75716
lfemur -42.5249 -3.1917 -9.77155
ltibia 29.476
lfoot -14.5327 7.39208
ltoes -56.0933
585
root -0.481477 18.8296 5.01344 26.4933 6.91125 -1.85284
lowerback 28.5072 1.047 0.54923
upperback 3.30092 1.49292 -0.223573
thorax -12.0861 0.647792 -1.13874
lowerneck -8.8121 6.35542 2.88897
upperneck 4.50122 8.74306 -8.03223
head 3.61304 4.08754 -2.66091
rclavicle 2.40281e-014 -3.14825e-014
rhumerus 2.52251 27.5586 -69.8517
rradius 45.5376
rwrist 9.44838
rhand -24.555 -34.363
rfingers 7.12502
rthumb 1.94139 -64.3339
lclavicle 2.40281e-014 -3.14825e-014
lhumerus 11.7987 -25.9409 76.014
lradius 43.0727
lwrist -13.8681
lhand -21.2888 -43.1649
lfingers 7.12502
lthumb 5.0955 -13.2461
rfemur -26.6874 -2.75717 16.1859
rtibia 8.66387
rfoot -20.2548 -17.9027
rtoes -2.75387
lfemur -42.5338 -3.23926 -9.69347
ltibia 29.4874
lfoot -14.5354 7.36489
ltoes -56.0553
586
root -0.480083 18.8285 5.01215 26.5173 7.00301 -1.86607
lowerback 28.4374 1.05808 0.455075
upperback 3.3293 1.48407 -0.181537
thorax -12.0207 0.650612 -1.03095
lowerneck -8.53753 6.66527 3.0343
upperneck 3.88768 9.13467 -8.42148
head 3.40553 4.29279 -2.80237
rclavicle 2.79292e-014 -1.86236e-014
rhumerus 2.40199 27.4645 -69.9565
rradius 45.5166
rwrist 9.75705
rhand -24.6616 -34.3596
rfingers 7.12502
rthumb 1.83836 -64.3314
lclavicle 2.79292e-014 -1.86236e-014
lhumerus 11.9237 -25.8494 76.0222
lradius 43.0137
lwrist -13.9654
lhand -21.1644 -43.1568
lfingers 7.12502
lthumb 5.21558 -13.241
rfemur -26.7128 -2.8215 16.2357
rtibia 8.68308
rfoot -20.2501 -17.926
rtoes -2.9666
lfemur -42.5835 -3.28661 -9.64466
ltibia 29.4924
lfoot -14.5649 7.3212
ltoes -55.9296
587
root -0.479733 18.8273 5.01134 26.5786 7.07077 -1.85144
lowerback 28.2915 1.06693 0.24416
upperback 3.38053 1.44078 -0.111611
thorax -11.8934 0.644822 -0.809143
lowerneck -8.18727 6.99007 3.16612
upperneck 3.09651 9.53823 -8.87341
head 3.13102 4.51044 -2.96682
rclavicle 2.36057e-016 -2.2003e-014
rhumerus 2.53637 27.6273 -69.8291
rradius 45.4518
rwrist 9.81217
rhand -24.6632 -34.2922
rfingers 7.12502
rthumb 1.83685 -64.264
lclavicle 2.36057e-016 -2.2003e-014
lhumerus 12.0527 -25.6183 76.043
lradius 42.9083
lwrist -14.0972
lhand -21.0854 -43.2609
lfingers 7.12502
lthumb 5.29188 -13.347
rfemur -26.7923 -2.88157 16.2467
rtibia 8.72596
rfoot -20.2755 -17.9189
rtoes -3.00715
lfemur -42.6664 -3.3095 -9.63749
ltibia 29.4911
lfoot -14.565 7.29695
ltoes -55.9336
588
root -0.481362 18.8264 5.01153 26.6139 7.12872 -1.84997
lowerback 28.1634 1.09486 0.047619
upperback 3.45024 1.42392 -0.063212
thorax -11.7525 0.649289 -0.630554
lowerneck -7.91946 7.2907 3.19356
upperneck 2.31768 9.90549 -9.14636
head 2.85939 4.7144 -3.05316
rclavicle 7.72775e-015 -2.98177e-016
rhumerus 2.78951 27.8837 -69.541
rradius 45.3967
rwrist 9.58581
rhand -24.5393 -34.2532
rfingers 7.12502
rthumb 1.95655 -64.224
lclavicle 7.72775e-015 -2.98177e-016
lhumerus 12.2358 -25.4393 76.0493
lradius 42.7868
lwrist -14.1868
lhand -21.1126 -43.3348
lfingers 7.12502
lthumb 5.26561 -13.4202
rfemur -26.8603 -2.92401 16.2666
rtibia 8.79281
rfoot -20.3415 -17.8772
rtoes -2.84155
lfemur -42.7205 -3.31209 -9.62267
ltibia 29.4884
lfoot -14.536 7.26454
ltoes -55.9408
589
root -0.483718 18.8259 5.01147 26.623 7.20043 -1.87259
lowerback 28.201 1.11202 0.0729659
upperback 3.44341 1.44544 -0.125187
thorax -11.7773 0.65595 -0.724623
lowerneck -7.68042 7.50783 3.20554
upperneck 1.63064 10.1547 -9.21404
head 2.60376 4.86297 -3.07507
rclavicle -1.03679e-014 1.76856e-014
rhumerus 2.80267 27.9009 -69.4842
rradius 45.3627
rwrist 9.42325
rhand -24.4716 -34.3291
rfingers 7.12502
rthumb 2.02191 -64.2992
lclavicle -1.03679e-014 1.76856e-014
lhumerus 12.3288 -25.5139 76.0175
lradius 42.7341
lwrist -14.1935
lhand -21.146 -43.2683
lfingers 7.12502
lthumb 5.23334 -13.3529
rfemur -26.9017 -2.96129 16.3229
rtibia 8.86604
rfoot -20.3993 -17.8555
rtoes -2.73572
lfemur -42.7458 -3.323 -9.5756
ltibia 29.4812
lfoot -14.5023 7.22795
ltoes -55.9148
590
root -0.484351 18.8256 5.01044 26.6192 7.31213 -1.87448
lowerback 28.4174 1.09473 0.295079
upperback 3.3365 1.46978 -0.282499
thorax -12.0033 0.649519 -1.04788
lowerneck -7.30999 7.65732 3.36519
upperneck 0.891319 10.299 -9.31256
head 2.31405 4.9643 -3.14817
rclavicle -2.08103e-015 3.29237e-016
rhumerus 2.54681 27.764 -69.6395
rradius 45.3489
rwrist 9.30652
rhand -24.5446 -34.4399
rfingers 7.12502
rthumb 1.95144 -64.4107
lclavicle -2.08103e-015 3.29237e-016
lhumerus 12.2744 -25.8578 75.9298
lradius 42.7614
lwrist -14.1441
lhand -21.1822 -43.1757
lfingers 7.12502
lthumb 5.19839 -13.2595
rfemur -26.9111 -3.04524 16.3725
rtibia 8.92173
rfoot -20.4423 -17.8551
rtoes -2.68789
lfemur -42.7692 -3.3733 -9.54758
ltibia 29.472
lfoot -14.4641 7.22185
ltoes -55.9866
591
root -0.482765 18.8253 5.0097 26.632 7.43671 -1.84206
lowerback 28.5531 1.07236 0.409201
upperback 3.26957 1.46395 -0.375916
thorax -12.1463 0.636827 -1.22274
lowerneck -6.9104 7.84703 3.53766
upperneck 0.00245409 10.4941 -9.54914
head 1.987 5.09331 -3.27278
rclavicle -5.91384e-015 -9.21864e-015
rhumerus 2.27427 27.7439 -69.7058
rradius 45.4383
rwrist 9.13977
rhand -24.6799 -34.5545
rfingers 7.12502
rthumb 1.82069 -64.5265
lclavicle -5.91384e-015 -9.21864e-015
lhumerus 12.2681 -26.0688 75.8666
lradius 42.7695
lwrist -14.1334
lhand -21.2051 -43.2116
lfingers 7.12502
lthumb 5.17634 -13.2948
rfemur -26.9183 -3.16407 16.3837
rtibia 8.94891
rfoot -20.4353 -17.8766
rtoes -2.72212
lfemur -42.8185 -3.46665 -9.54679
ltibia 29.4716
lfoot -14.43 7.21529
ltoes -56.0055
592
root -0.481607 18.8249 5.01007 26.6607 7.53458 -1.83547
lowerback 28.5496 1.06954 0.391663
upperback 3.27065 1.45221 -0.398838
thorax -12.1432 0.631867 -1.23429
lowerneck -6.57146 8.095 3.64961
upperneck -0.962492 10.7667 -9.77285
head 1.65001 5.26271 -3.37987
rclavicle 2.88983e-014 -5.34234e-016
rhumerus 2.01466 27.698 -69.7673
rradius 45.5844
rwrist 9.1163
rhand -24.7455 -34.595
rfingers 7.12502
rthumb 1.75734 -64.5675
lclavicle 2.88983e-014 -5.34234e-016
lhumerus 12.3397 -26.0852 75.8171
lradius 42.7616
lwrist -14.162
lhand -21.1609 -43.2739
lfingers 7.12502
lthumb 5.21902 -13.3582
rfemur -26.9344 -3.2462 16.4122
rtibia 8.95466
rfoot -20.4036 -17.895
rtoes -2.7459
lfemur -42.88 -3.52756 -9.52353
ltibia 29.482
lfoot -14.4211 7.16918
ltoes -55.9145
593
root -0.482204 18.8244 5.01146 26.6963 7.61783 -1.87416
lowerback 28.5379 1.08253 0.359527
upperback 3.24868 1.45887 -0.401342
thorax -12.1633 0.636169 -1.22124
lowerneck -6.18997 8.30391 3.65406
upperneck -1.97231 10.9879 -9.8462
head 1.27257 5.41149 -3.42651
rclavicle 3.01407e-014 -2.49723e-014
rhumerus 1.7837 27.6207 -69.8696
rradius 45.6334
rwrist 9.18132
rhand -24.7623 -34.4742
rfingers 7.12502
rthumb 1.74112 -64.4468
lclavicle 3.01407e-014 -2.49723e-014
lhumerus 12.3377 -26.0867 75.8291
lradius 42.7732
lwrist -14.2363
lhand -21.1796 -43.159
lfingers 7.12502
lthumb 5.20098 -13.2428
rfemur -26.9541 -3.28808 16.4902
rtibia 8.94298
rfoot -20.3751 -17.9099
rtoes -2.85494
lfemur -42.9459 -3.54481 -9.45678
ltibia 29.4951
lfoot -14.4274 7.14695
ltoes -55.9103
594
root -0.483497 18.824 5.0137 26.742 7.70389 -1.93516
lowerback 28.5441 1.09535 0.331559
upperback 3.21844 1.46696 -0.400764
thorax -12.2023 0.640742 -1.20819
lowerneck -5.92509 8.47379 3.54493
upperneck -2.96409 11.1631 -9.75185
head 0.901722 5.53591 -3.3983
rclavicle 4.72114e-015 -7.57867e-015
rhumerus 1.65253 27.6387 -69.9201
rradius 45.6261
rwrist 9.16146
rhand -24.7837 -34.3473
rfingers 7.12502
rthumb 1.72045 -64.3201
lclavicle 4.72114e-015 -7.57867e-015
lhumerus 12.3541 -26.0575 75.8724
lradius 42.7333
lwrist -14.3716
lhand -21.2497 -43.0073
lfingers 7.12502
lthumb 5.13326 -13.0895
rfemur -26.9749 -3.32072 16.5948
rtibia 8.90433
rfoot -20.3465 -17.9195
rtoes -3.08705
lfemur -43.0241 -3.54852 -9.36561
ltibia 29.5121
lfoot -14.4151 7.16184
ltoes -56.0075
